<svg xmlns="http://www.w3.org/2000/svg" width="64" height="32" viewBox="0 0 64 32" shape-rendering="crispEdges">
  <!-- generated by scripts/pixel-art.mjs from art/garden.mjs; flat tile -->
  <rect x="30" y="0" width="4" height="2" fill="#8fd16a"/>
  <rect x="26" y="2" width="2" height="2" fill="#8fd16a"/>
  <rect x="28" y="2" width="2" height="2" fill="#b4e88a"/>
  <rect x="30" y="2" width="2" height="2" fill="#6ab450"/>
  <rect x="32" y="2" width="6" height="2" fill="#8fd16a"/>
  <rect x="22" y="4" width="2" height="2" fill="#b4e88a"/>
  <rect x="24" y="4" width="6" height="2" fill="#8fd16a"/>
  <rect x="30" y="4" width="2" height="2" fill="#b4e88a"/>
  <rect x="32" y="4" width="8" height="2" fill="#8fd16a"/>
  <rect x="40" y="4" width="2" height="2" fill="#6ab450"/>
  <rect x="18" y="6" width="6" height="2" fill="#8fd16a"/>
  <rect x="24" y="6" width="16" height="2" fill="#9a6a48"/>
  <rect x="40" y="6" width="4" height="2" fill="#8fd16a"/>
  <rect x="44" y="6" width="2" height="2" fill="#b4e88a"/>
  <rect x="14" y="8" width="4" height="2" fill="#8fd16a"/>
  <rect x="18" y="8" width="28" height="2" fill="#9a6a48"/>
  <rect x="46" y="8" width="4" height="2" fill="#8fd16a"/>
  <rect x="10" y="10" width="4" height="2" fill="#8fd16a"/>
  <rect x="14" y="10" width="10" height="2" fill="#9a6a48"/>
  <rect x="24" y="10" width="16" height="2" fill="#4a3848"/>
  <rect x="40" y="10" width="10" height="2" fill="#9a6a48"/>
  <rect x="50" y="10" width="4" height="2" fill="#8fd16a"/>
  <rect x="6" y="12" width="6" height="2" fill="#8fd16a"/>
  <rect x="12" y="12" width="8" height="4" fill="#9a6a48"/>
  <rect x="20" y="12" width="24" height="2" fill="#4a3848"/>
  <rect x="44" y="12" width="8" height="2" fill="#9a6a48"/>
  <rect x="52" y="12" width="4" height="2" fill="#8fd16a"/>
  <rect x="56" y="12" width="2" height="2" fill="#b4e88a"/>
  <rect x="2" y="14" width="6" height="2" fill="#8fd16a"/>
  <rect x="8" y="14" width="2" height="2" fill="#b4e88a"/>
  <rect x="10" y="14" width="2" height="2" fill="#8fd16a"/>
  <rect x="20" y="14" width="24" height="6" fill="#74503a"/>
  <rect x="44" y="14" width="2" height="2" fill="#d8cbb0"/>
  <rect x="46" y="14" width="6" height="2" fill="#9a6a48"/>
  <rect x="52" y="14" width="8" height="2" fill="#8fd16a"/>
  <rect x="60" y="14" width="2" height="2" fill="#6ab450"/>
  <rect x="2" y="16" width="2" height="2" fill="#8fd16a"/>
  <rect x="4" y="16" width="2" height="2" fill="#6ab450"/>
  <rect x="6" y="16" width="6" height="4" fill="#8fd16a"/>
  <rect x="12" y="16" width="8" height="2" fill="#c08a60"/>
  <rect x="44" y="16" width="8" height="4" fill="#c08a60"/>
  <rect x="52" y="16" width="2" height="2" fill="#8fd16a"/>
  <rect x="54" y="16" width="2" height="2" fill="#6ab450"/>
  <rect x="56" y="16" width="6" height="2" fill="#8fd16a"/>
  <rect x="12" y="18" width="6" height="2" fill="#c08a60"/>
  <rect x="18" y="18" width="2" height="2" fill="#d8cbb0"/>
  <rect x="52" y="18" width="6" height="2" fill="#8fd16a"/>
  <rect x="10" y="20" width="4" height="2" fill="#8fd16a"/>
  <rect x="14" y="20" width="10" height="2" fill="#c08a60"/>
  <rect x="24" y="20" width="16" height="2" fill="#74503a"/>
  <rect x="40" y="20" width="10" height="2" fill="#c08a60"/>
  <rect x="50" y="20" width="4" height="2" fill="#8fd16a"/>
  <rect x="14" y="22" width="2" height="2" fill="#8fd16a"/>
  <rect x="16" y="22" width="2" height="2" fill="#6ab450"/>
  <rect x="18" y="22" width="22" height="2" fill="#c08a60"/>
  <rect x="40" y="22" width="2" height="2" fill="#4fa858"/>
  <rect x="42" y="22" width="4" height="2" fill="#c08a60"/>
  <rect x="46" y="22" width="4" height="2" fill="#8fd16a"/>
  <rect x="18" y="24" width="6" height="2" fill="#8fd16a"/>
  <rect x="24" y="24" width="16" height="2" fill="#c08a60"/>
  <rect x="40" y="24" width="2" height="2" fill="#6ab450"/>
  <rect x="42" y="24" width="4" height="2" fill="#8fd16a"/>
  <rect x="22" y="26" width="6" height="2" fill="#8fd16a"/>
  <rect x="28" y="26" width="2" height="2" fill="#b4e88a"/>
  <rect x="30" y="26" width="12" height="2" fill="#8fd16a"/>
  <rect x="26" y="28" width="12" height="2" fill="#8fd16a"/>
  <rect x="30" y="30" width="2" height="2" fill="#b4e88a"/>
  <rect x="32" y="30" width="2" height="2" fill="#8fd16a"/>
</svg>
