<svg xmlns="http://www.w3.org/2000/svg" width="32" height="32" viewBox="0 0 32 32" shape-rendering="crispEdges">
  <!-- generated by scripts/pixel-art.mjs from art/garden.mjs; ground pile -->
  <rect x="22" y="8" width="2" height="2" fill="#4a3848"/>
  <rect x="18" y="10" width="4" height="2" fill="#4a3848"/>
  <rect x="22" y="10" width="2" height="4" fill="#fffaf4"/>
  <rect x="24" y="10" width="2" height="4" fill="#4a3848"/>
  <rect x="14" y="12" width="4" height="2" fill="#4a3848"/>
  <rect x="18" y="12" width="2" height="2" fill="#fffaf4"/>
  <rect x="20" y="12" width="2" height="2" fill="#e0d8ea"/>
  <rect x="10" y="14" width="4" height="2" fill="#4a3848"/>
  <rect x="14" y="14" width="4" height="2" fill="#fffaf4"/>
  <rect x="18" y="14" width="2" height="2" fill="#e0d8ea"/>
  <rect x="20" y="14" width="2" height="2" fill="#fffaf4"/>
  <rect x="22" y="14" width="2" height="2" fill="#4a3848"/>
  <rect x="8" y="16" width="2" height="2" fill="#4a3848"/>
  <rect x="10" y="16" width="4" height="2" fill="#fffaf4"/>
  <rect x="14" y="16" width="4" height="2" fill="#e0d8ea"/>
  <rect x="18" y="16" width="2" height="2" fill="#fffaf4"/>
  <rect x="20" y="16" width="2" height="2" fill="#4a3848"/>
  <rect x="6" y="18" width="2" height="4" fill="#4a3848"/>
  <rect x="8" y="18" width="4" height="2" fill="#fffaf4"/>
  <rect x="12" y="18" width="2" height="2" fill="#e0d8ea"/>
  <rect x="14" y="18" width="2" height="2" fill="#fffaf4"/>
  <rect x="16" y="18" width="4" height="2" fill="#4a3848"/>
  <rect x="8" y="20" width="2" height="2" fill="#fffaf4"/>
  <rect x="10" y="20" width="6" height="2" fill="#4a3848"/>
  <rect x="16" y="20" width="8" height="2" fill="#000000" fill-opacity="0.25"/>
  <rect x="6" y="22" width="2" height="2" fill="#000000" fill-opacity="0.25"/>
  <rect x="8" y="22" width="2" height="2" fill="#4a3848"/>
  <rect x="10" y="22" width="16" height="2" fill="#000000" fill-opacity="0.25"/>
  <rect x="8" y="24" width="16" height="2" fill="#000000" fill-opacity="0.25"/>
</svg>
