<svg xmlns="http://www.w3.org/2000/svg" width="32" height="48" viewBox="0 0 32 48" shape-rendering="crispEdges">
  <!-- generated by scripts/pixel-art.mjs from art/garden.mjs; facing ne -->
  <rect x="20" y="14" width="2" height="2" fill="#4a3848"/>
  <rect x="26" y="14" width="2" height="2" fill="#4a3848"/>
  <rect x="18" y="16" width="2" height="2" fill="#4a3848"/>
  <rect x="20" y="16" width="2" height="2" fill="#74503a"/>
  <rect x="22" y="16" width="4" height="2" fill="#4a3848"/>
  <rect x="26" y="16" width="2" height="2" fill="#74503a"/>
  <rect x="28" y="16" width="2" height="6" fill="#4a3848"/>
  <rect x="16" y="18" width="2" height="6" fill="#4a3848"/>
  <rect x="18" y="18" width="4" height="2" fill="#74503a"/>
  <rect x="22" y="18" width="2" height="2" fill="#4a3848"/>
  <rect x="24" y="18" width="4" height="2" fill="#74503a"/>
  <rect x="18" y="20" width="2" height="2" fill="#e0703a"/>
  <rect x="20" y="20" width="2" height="2" fill="#f6deb4"/>
  <rect x="22" y="20" width="4" height="2" fill="#e0703a"/>
  <rect x="26" y="20" width="2" height="2" fill="#f6deb4"/>
  <rect x="18" y="22" width="10" height="2" fill="#e0703a"/>
  <rect x="28" y="22" width="2" height="2" fill="#b4502e"/>
  <rect x="30" y="22" width="2" height="2" fill="#4a3848"/>
  <rect x="14" y="24" width="2" height="6" fill="#4a3848"/>
  <rect x="16" y="24" width="8" height="4" fill="#e0703a"/>
  <rect x="24" y="24" width="2" height="2" fill="#fffaf4"/>
  <rect x="26" y="24" width="6" height="2" fill="#4a3848"/>
  <rect x="0" y="26" width="4" height="2" fill="#4a3848"/>
  <rect x="24" y="26" width="4" height="2" fill="#4a3848"/>
  <rect x="28" y="26" width="4" height="2" fill="#f6deb4"/>
  <rect x="0" y="28" width="4" height="4" fill="#fffaf4"/>
  <rect x="4" y="28" width="2" height="2" fill="#4a3848"/>
  <rect x="16" y="28" width="4" height="2" fill="#f6deb4"/>
  <rect x="20" y="28" width="4" height="2" fill="#e0703a"/>
  <rect x="24" y="28" width="6" height="2" fill="#f6deb4"/>
  <rect x="30" y="28" width="2" height="2" fill="#4a3848"/>
  <rect x="4" y="30" width="2" height="2" fill="#e0703a"/>
  <rect x="6" y="30" width="2" height="2" fill="#4a3848"/>
  <rect x="10" y="30" width="6" height="2" fill="#4a3848"/>
  <rect x="16" y="30" width="12" height="2" fill="#f6deb4"/>
  <rect x="28" y="30" width="4" height="2" fill="#4a3848"/>
  <rect x="0" y="32" width="2" height="2" fill="#4a3848"/>
  <rect x="2" y="32" width="6" height="2" fill="#e0703a"/>
  <rect x="8" y="32" width="2" height="2" fill="#4a3848"/>
  <rect x="10" y="32" width="16" height="2" fill="#e0703a"/>
  <rect x="26" y="32" width="2" height="2" fill="#4a3848"/>
  <rect x="2" y="34" width="2" height="4" fill="#4a3848"/>
  <rect x="4" y="34" width="22" height="2" fill="#e0703a"/>
  <rect x="26" y="34" width="2" height="2" fill="#b4502e"/>
  <rect x="28" y="34" width="2" height="6" fill="#4a3848"/>
  <rect x="4" y="36" width="20" height="2" fill="#e0703a"/>
  <rect x="24" y="36" width="4" height="2" fill="#b4502e"/>
  <rect x="4" y="38" width="2" height="2" fill="#4a3848"/>
  <rect x="6" y="38" width="4" height="2" fill="#b4502e"/>
  <rect x="10" y="38" width="14" height="2" fill="#e0703a"/>
  <rect x="24" y="38" width="2" height="2" fill="#f6deb4"/>
  <rect x="26" y="38" width="2" height="2" fill="#b4502e"/>
  <rect x="6" y="40" width="2" height="4" fill="#4a3848"/>
  <rect x="8" y="40" width="18" height="2" fill="#b4502e"/>
  <rect x="26" y="40" width="4" height="2" fill="#4a3848"/>
  <rect x="4" y="42" width="2" height="2" fill="#000000" fill-opacity="0.25"/>
  <rect x="8" y="42" width="4" height="2" fill="#74503a"/>
  <rect x="12" y="42" width="2" height="2" fill="#4a3848"/>
  <rect x="14" y="42" width="4" height="2" fill="#74503a"/>
  <rect x="18" y="42" width="2" height="2" fill="#4a3848"/>
  <rect x="20" y="42" width="4" height="2" fill="#74503a"/>
  <rect x="24" y="42" width="2" height="2" fill="#4a3848"/>
  <rect x="26" y="42" width="4" height="2" fill="#74503a"/>
  <rect x="30" y="42" width="2" height="2" fill="#4a3848"/>
  <rect x="4" y="44" width="4" height="2" fill="#000000" fill-opacity="0.25"/>
  <rect x="8" y="44" width="4" height="2" fill="#4a3848"/>
  <rect x="12" y="44" width="2" height="2" fill="#000000" fill-opacity="0.25"/>
  <rect x="14" y="44" width="4" height="2" fill="#4a3848"/>
  <rect x="18" y="44" width="2" height="2" fill="#000000" fill-opacity="0.25"/>
  <rect x="20" y="44" width="4" height="2" fill="#4a3848"/>
  <rect x="24" y="44" width="2" height="2" fill="#000000" fill-opacity="0.25"/>
  <rect x="26" y="44" width="4" height="2" fill="#4a3848"/>
  <rect x="12" y="46" width="8" height="2" fill="#000000" fill-opacity="0.25"/>
</svg>
