<svg xmlns="http://www.w3.org/2000/svg" width="32" height="48" viewBox="0 0 32 48" shape-rendering="crispEdges">
  <!-- generated by scripts/pixel-art.mjs from art/zombie.mjs; facing nw -->
  <rect x="4" y="30" width="2" height="2" fill="#1e1c20"/>
  <rect x="12" y="30" width="8" height="2" fill="#1e1c20"/>
  <rect x="26" y="30" width="2" height="2" fill="#1e1c20"/>
  <rect x="2" y="32" width="2" height="4" fill="#1e1c20"/>
  <rect x="4" y="32" width="2" height="2" fill="#9cc47a"/>
  <rect x="6" y="32" width="2" height="2" fill="#1e1c20"/>
  <rect x="10" y="32" width="2" height="2" fill="#1e1c20"/>
  <rect x="12" y="32" width="8" height="2" fill="#523a22"/>
  <rect x="20" y="32" width="2" height="2" fill="#1e1c20"/>
  <rect x="24" y="32" width="2" height="2" fill="#1e1c20"/>
  <rect x="26" y="32" width="2" height="2" fill="#9cc47a"/>
  <rect x="28" y="32" width="2" height="4" fill="#1e1c20"/>
  <rect x="4" y="34" width="2" height="2" fill="#aa9c72"/>
  <rect x="6" y="34" width="4" height="2" fill="#1e1c20"/>
  <rect x="10" y="34" width="12" height="2" fill="#523a22"/>
  <rect x="22" y="34" width="4" height="2" fill="#1e1c20"/>
  <rect x="26" y="34" width="2" height="2" fill="#807452"/>
  <rect x="4" y="36" width="2" height="2" fill="#1e1c20"/>
  <rect x="6" y="36" width="14" height="2" fill="#aa9c72"/>
  <rect x="20" y="36" width="6" height="2" fill="#807452"/>
  <rect x="26" y="36" width="2" height="2" fill="#1e1c20"/>
  <rect x="6" y="38" width="2" height="2" fill="#1e1c20"/>
  <rect x="8" y="38" width="12" height="2" fill="#aa9c72"/>
  <rect x="20" y="38" width="4" height="2" fill="#807452"/>
  <rect x="24" y="38" width="2" height="2" fill="#1e1c20"/>
  <rect x="4" y="40" width="2" height="2" fill="#1e1c20"/>
  <rect x="6" y="40" width="12" height="2" fill="#405c84"/>
  <rect x="18" y="40" width="8" height="2" fill="#3a3a40"/>
  <rect x="26" y="40" width="2" height="2" fill="#1e1c20"/>
  <rect x="2" y="42" width="2" height="2" fill="#1e1c20"/>
  <rect x="4" y="42" width="4" height="2" fill="#3a3a40"/>
  <rect x="8" y="42" width="16" height="2" fill="#1e1c20"/>
  <rect x="24" y="42" width="4" height="2" fill="#3a3a40"/>
  <rect x="28" y="42" width="2" height="2" fill="#1e1c20"/>
  <rect x="4" y="44" width="4" height="2" fill="#1e1c20"/>
  <rect x="8" y="44" width="16" height="2" fill="#000000" fill-opacity="0.3"/>
  <rect x="24" y="44" width="4" height="2" fill="#1e1c20"/>
</svg>
