<svg xmlns="http://www.w3.org/2000/svg" width="32" height="32" viewBox="0 0 32 32" shape-rendering="crispEdges">
  <!-- generated by scripts/pixel-art.mjs from art/town.mjs; ground pile -->
  <rect x="14" y="10" width="8" height="2" fill="#1e1c20"/>
  <rect x="10" y="12" width="4" height="2" fill="#1e1c20"/>
  <rect x="14" y="12" width="8" height="2" fill="#aa9c72"/>
  <rect x="22" y="12" width="4" height="2" fill="#1e1c20"/>
  <rect x="6" y="14" width="4" height="2" fill="#1e1c20"/>
  <rect x="10" y="14" width="12" height="2" fill="#aa9c72"/>
  <rect x="22" y="14" width="4" height="4" fill="#807452"/>
  <rect x="26" y="14" width="2" height="4" fill="#1e1c20"/>
  <rect x="4" y="16" width="2" height="4" fill="#1e1c20"/>
  <rect x="6" y="16" width="8" height="2" fill="#aa9c72"/>
  <rect x="14" y="16" width="4" height="2" fill="#c42a2a"/>
  <rect x="18" y="16" width="4" height="2" fill="#aa9c72"/>
  <rect x="6" y="18" width="6" height="2" fill="#807452"/>
  <rect x="12" y="18" width="8" height="2" fill="#c42a2a"/>
  <rect x="20" y="18" width="4" height="2" fill="#807452"/>
  <rect x="24" y="18" width="2" height="2" fill="#1e1c20"/>
  <rect x="6" y="20" width="4" height="2" fill="#1e1c20"/>
  <rect x="10" y="20" width="10" height="2" fill="#807452"/>
  <rect x="20" y="20" width="4" height="2" fill="#1e1c20"/>
  <rect x="4" y="22" width="6" height="2" fill="#000000" fill-opacity="0.3"/>
  <rect x="10" y="22" width="10" height="2" fill="#1e1c20"/>
  <rect x="20" y="22" width="8" height="2" fill="#000000" fill-opacity="0.3"/>
  <rect x="8" y="24" width="16" height="2" fill="#000000" fill-opacity="0.3"/>
</svg>
