<svg xmlns="http://www.w3.org/2000/svg" width="64" height="64" viewBox="0 0 64 64" shape-rendering="crispEdges">
  <!-- generated by scripts/pixel-art.mjs from art/town.mjs; block, facing w -->
  <rect x="30" y="12" width="4" height="2" fill="#d2d4dc"/>
  <rect x="26" y="14" width="4" height="2" fill="#d2d4dc"/>
  <rect x="30" y="14" width="8" height="2" fill="#f2f2f6"/>
  <rect x="22" y="16" width="4" height="2" fill="#d2d4dc"/>
  <rect x="26" y="16" width="16" height="2" fill="#f2f2f6"/>
  <rect x="18" y="18" width="4" height="2" fill="#d2d4dc"/>
  <rect x="22" y="18" width="24" height="2" fill="#f2f2f6"/>
  <rect x="14" y="20" width="4" height="2" fill="#d2d4dc"/>
  <rect x="18" y="20" width="32" height="2" fill="#f2f2f6"/>
  <rect x="10" y="22" width="4" height="2" fill="#d2d4dc"/>
  <rect x="14" y="22" width="40" height="2" fill="#f2f2f6"/>
  <rect x="6" y="24" width="4" height="2" fill="#d2d4dc"/>
  <rect x="10" y="24" width="48" height="2" fill="#f2f2f6"/>
  <rect x="2" y="26" width="4" height="2" fill="#d2d4dc"/>
  <rect x="6" y="26" width="56" height="2" fill="#f2f2f6"/>
  <rect x="0" y="28" width="2" height="2" fill="#d2d4dc"/>
  <rect x="2" y="28" width="60" height="2" fill="#f2f2f6"/>
  <rect x="62" y="28" width="2" height="2" fill="#a6a8b4"/>
  <rect x="0" y="30" width="2" height="2" fill="#a07242"/>
  <rect x="2" y="30" width="4" height="2" fill="#d2d4dc"/>
  <rect x="6" y="30" width="52" height="2" fill="#f2f2f6"/>
  <rect x="58" y="30" width="4" height="2" fill="#a6a8b4"/>
  <rect x="62" y="30" width="2" height="2" fill="#765232"/>
  <rect x="0" y="32" width="6" height="2" fill="#a07242"/>
  <rect x="6" y="32" width="4" height="2" fill="#d2d4dc"/>
  <rect x="10" y="32" width="44" height="2" fill="#f2f2f6"/>
  <rect x="54" y="32" width="4" height="2" fill="#a6a8b4"/>
  <rect x="58" y="32" width="6" height="2" fill="#765232"/>
  <rect x="0" y="34" width="10" height="2" fill="#a07242"/>
  <rect x="10" y="34" width="4" height="2" fill="#d2d4dc"/>
  <rect x="14" y="34" width="36" height="2" fill="#f2f2f6"/>
  <rect x="50" y="34" width="4" height="2" fill="#a6a8b4"/>
  <rect x="54" y="34" width="10" height="2" fill="#765232"/>
  <rect x="0" y="36" width="14" height="2" fill="#a07242"/>
  <rect x="14" y="36" width="4" height="2" fill="#d2d4dc"/>
  <rect x="18" y="36" width="28" height="2" fill="#f2f2f6"/>
  <rect x="46" y="36" width="4" height="2" fill="#a6a8b4"/>
  <rect x="50" y="36" width="14" height="2" fill="#765232"/>
  <rect x="0" y="38" width="18" height="2" fill="#a07242"/>
  <rect x="18" y="38" width="4" height="2" fill="#d2d4dc"/>
  <rect x="22" y="38" width="20" height="2" fill="#f2f2f6"/>
  <rect x="42" y="38" width="4" height="2" fill="#a6a8b4"/>
  <rect x="46" y="38" width="18" height="2" fill="#765232"/>
  <rect x="0" y="40" width="22" height="2" fill="#a07242"/>
  <rect x="22" y="40" width="4" height="2" fill="#d2d4dc"/>
  <rect x="26" y="40" width="12" height="2" fill="#f2f2f6"/>
  <rect x="38" y="40" width="4" height="2" fill="#a6a8b4"/>
  <rect x="42" y="40" width="22" height="2" fill="#765232"/>
  <rect x="0" y="42" width="26" height="2" fill="#a07242"/>
  <rect x="26" y="42" width="4" height="2" fill="#d2d4dc"/>
  <rect x="30" y="42" width="4" height="2" fill="#f2f2f6"/>
  <rect x="34" y="42" width="4" height="2" fill="#a6a8b4"/>
  <rect x="38" y="42" width="26" height="2" fill="#765232"/>
  <rect x="0" y="44" width="30" height="2" fill="#a07242"/>
  <rect x="30" y="44" width="2" height="2" fill="#d2d4dc"/>
  <rect x="32" y="44" width="2" height="2" fill="#a6a8b4"/>
  <rect x="34" y="44" width="30" height="2" fill="#765232"/>
  <rect x="0" y="46" width="2" height="2" fill="#523a22"/>
  <rect x="2" y="46" width="30" height="2" fill="#a07242"/>
  <rect x="32" y="46" width="30" height="2" fill="#765232"/>
  <rect x="62" y="46" width="2" height="2" fill="#523a22"/>
  <rect x="2" y="48" width="4" height="2" fill="#523a22"/>
  <rect x="6" y="48" width="26" height="2" fill="#a07242"/>
  <rect x="32" y="48" width="26" height="2" fill="#765232"/>
  <rect x="58" y="48" width="4" height="2" fill="#523a22"/>
  <rect x="6" y="50" width="4" height="2" fill="#523a22"/>
  <rect x="10" y="50" width="22" height="2" fill="#a07242"/>
  <rect x="32" y="50" width="22" height="2" fill="#765232"/>
  <rect x="54" y="50" width="4" height="2" fill="#523a22"/>
  <rect x="10" y="52" width="4" height="2" fill="#523a22"/>
  <rect x="14" y="52" width="18" height="2" fill="#a07242"/>
  <rect x="32" y="52" width="18" height="2" fill="#765232"/>
  <rect x="50" y="52" width="4" height="2" fill="#523a22"/>
  <rect x="14" y="54" width="4" height="2" fill="#523a22"/>
  <rect x="18" y="54" width="14" height="2" fill="#a07242"/>
  <rect x="32" y="54" width="14" height="2" fill="#765232"/>
  <rect x="46" y="54" width="4" height="2" fill="#523a22"/>
  <rect x="18" y="56" width="4" height="2" fill="#523a22"/>
  <rect x="22" y="56" width="10" height="2" fill="#a07242"/>
  <rect x="32" y="56" width="10" height="2" fill="#765232"/>
  <rect x="42" y="56" width="4" height="2" fill="#523a22"/>
  <rect x="22" y="58" width="4" height="2" fill="#523a22"/>
  <rect x="26" y="58" width="6" height="2" fill="#a07242"/>
  <rect x="32" y="58" width="6" height="2" fill="#765232"/>
  <rect x="38" y="58" width="4" height="2" fill="#523a22"/>
  <rect x="26" y="60" width="4" height="2" fill="#523a22"/>
  <rect x="30" y="60" width="2" height="2" fill="#a07242"/>
  <rect x="32" y="60" width="2" height="2" fill="#765232"/>
  <rect x="34" y="60" width="4" height="2" fill="#523a22"/>
  <rect x="30" y="62" width="4" height="2" fill="#523a22"/>
</svg>
