<svg xmlns="http://www.w3.org/2000/svg" width="64" height="32" viewBox="0 0 64 32" shape-rendering="crispEdges">
  <!-- generated by scripts/pixel-art.mjs from art/vampire.mjs; flat tile -->
  <rect x="30" y="0" width="4" height="2" fill="#661622"/>
  <rect x="26" y="2" width="4" height="2" fill="#8b1e2d"/>
  <rect x="30" y="2" width="4" height="2" fill="#d0a848"/>
  <rect x="34" y="2" width="4" height="2" fill="#8b1e2d"/>
  <rect x="22" y="4" width="4" height="2" fill="#661622"/>
  <rect x="26" y="4" width="4" height="2" fill="#d0a848"/>
  <rect x="30" y="4" width="4" height="2" fill="#8b1e2d"/>
  <rect x="34" y="4" width="4" height="2" fill="#d0a848"/>
  <rect x="38" y="4" width="4" height="2" fill="#661622"/>
  <rect x="18" y="6" width="4" height="2" fill="#8b1e2d"/>
  <rect x="22" y="6" width="4" height="2" fill="#d0a848"/>
  <rect x="26" y="6" width="12" height="2" fill="#8b1e2d"/>
  <rect x="38" y="6" width="4" height="2" fill="#d0a848"/>
  <rect x="42" y="6" width="4" height="2" fill="#8b1e2d"/>
  <rect x="14" y="8" width="4" height="2" fill="#661622"/>
  <rect x="18" y="8" width="4" height="2" fill="#d0a848"/>
  <rect x="22" y="8" width="20" height="2" fill="#661622"/>
  <rect x="42" y="8" width="4" height="2" fill="#d0a848"/>
  <rect x="46" y="8" width="4" height="2" fill="#661622"/>
  <rect x="10" y="10" width="4" height="2" fill="#8b1e2d"/>
  <rect x="14" y="10" width="4" height="2" fill="#d0a848"/>
  <rect x="18" y="10" width="4" height="2" fill="#8b1e2d"/>
  <rect x="22" y="10" width="4" height="6" fill="#661622"/>
  <rect x="26" y="10" width="12" height="4" fill="#8b1e2d"/>
  <rect x="38" y="10" width="4" height="6" fill="#661622"/>
  <rect x="42" y="10" width="2" height="2" fill="#b03040"/>
  <rect x="44" y="10" width="2" height="2" fill="#8b1e2d"/>
  <rect x="46" y="10" width="4" height="2" fill="#d0a848"/>
  <rect x="50" y="10" width="4" height="2" fill="#8b1e2d"/>
  <rect x="6" y="12" width="4" height="2" fill="#661622"/>
  <rect x="10" y="12" width="4" height="2" fill="#d0a848"/>
  <rect x="14" y="12" width="8" height="2" fill="#8b1e2d"/>
  <rect x="42" y="12" width="8" height="2" fill="#8b1e2d"/>
  <rect x="50" y="12" width="4" height="2" fill="#d0a848"/>
  <rect x="54" y="12" width="4" height="2" fill="#661622"/>
  <rect x="2" y="14" width="8" height="4" fill="#d0a848"/>
  <rect x="10" y="14" width="4" height="2" fill="#8b1e2d"/>
  <rect x="14" y="14" width="2" height="2" fill="#b03040"/>
  <rect x="16" y="14" width="6" height="2" fill="#8b1e2d"/>
  <rect x="26" y="14" width="2" height="2" fill="#b03040"/>
  <rect x="28" y="14" width="10" height="2" fill="#8b1e2d"/>
  <rect x="42" y="14" width="12" height="2" fill="#8b1e2d"/>
  <rect x="54" y="14" width="8" height="4" fill="#d0a848"/>
  <rect x="10" y="16" width="44" height="2" fill="#661622"/>
  <rect x="6" y="18" width="4" height="2" fill="#661622"/>
  <rect x="10" y="18" width="4" height="2" fill="#d0a848"/>
  <rect x="14" y="18" width="8" height="2" fill="#8b1e2d"/>
  <rect x="22" y="18" width="4" height="6" fill="#661622"/>
  <rect x="26" y="18" width="12" height="6" fill="#8b1e2d"/>
  <rect x="38" y="18" width="4" height="6" fill="#661622"/>
  <rect x="42" y="18" width="8" height="2" fill="#8b1e2d"/>
  <rect x="50" y="18" width="4" height="2" fill="#d0a848"/>
  <rect x="54" y="18" width="4" height="2" fill="#661622"/>
  <rect x="10" y="20" width="4" height="2" fill="#8b1e2d"/>
  <rect x="14" y="20" width="4" height="2" fill="#d0a848"/>
  <rect x="18" y="20" width="4" height="2" fill="#8b1e2d"/>
  <rect x="42" y="20" width="4" height="2" fill="#8b1e2d"/>
  <rect x="46" y="20" width="4" height="2" fill="#d0a848"/>
  <rect x="50" y="20" width="2" height="2" fill="#b03040"/>
  <rect x="52" y="20" width="2" height="2" fill="#8b1e2d"/>
  <rect x="14" y="22" width="4" height="2" fill="#8b1e2d"/>
  <rect x="18" y="22" width="4" height="2" fill="#d0a848"/>
  <rect x="42" y="22" width="4" height="2" fill="#d0a848"/>
  <rect x="46" y="22" width="4" height="2" fill="#8b1e2d"/>
  <rect x="18" y="24" width="4" height="2" fill="#661622"/>
  <rect x="22" y="24" width="4" height="2" fill="#d0a848"/>
  <rect x="26" y="24" width="12" height="2" fill="#661622"/>
  <rect x="38" y="24" width="4" height="2" fill="#d0a848"/>
  <rect x="42" y="24" width="4" height="2" fill="#661622"/>
  <rect x="22" y="26" width="4" height="2" fill="#661622"/>
  <rect x="26" y="26" width="4" height="2" fill="#d0a848"/>
  <rect x="30" y="26" width="4" height="2" fill="#8b1e2d"/>
  <rect x="34" y="26" width="4" height="2" fill="#d0a848"/>
  <rect x="38" y="26" width="4" height="2" fill="#661622"/>
  <rect x="26" y="28" width="4" height="2" fill="#8b1e2d"/>
  <rect x="30" y="28" width="4" height="2" fill="#d0a848"/>
  <rect x="34" y="28" width="4" height="2" fill="#8b1e2d"/>
  <rect x="30" y="30" width="4" height="2" fill="#8b1e2d"/>
</svg>
