<svg xmlns="http://www.w3.org/2000/svg" width="64" height="64" viewBox="0 0 64 64" shape-rendering="crispEdges">
  <!-- generated by scripts/pixel-art.mjs from art/vampire.mjs; block, climbing toward s -->
  <rect x="14" y="16" width="2" height="32" fill="#8a6a3a"/>
  <rect x="16" y="20" width="2" height="2" fill="#b08850"/>
  <rect x="18" y="22" width="4" height="2" fill="#b08850"/>
  <rect x="22" y="24" width="4" height="2" fill="#b08850"/>
  <rect x="32" y="24" width="2" height="32" fill="#8a6a3a"/>
  <rect x="26" y="26" width="4" height="2" fill="#b08850"/>
  <rect x="16" y="28" width="2" height="2" fill="#b08850"/>
  <rect x="30" y="28" width="2" height="2" fill="#b08850"/>
  <rect x="18" y="30" width="4" height="2" fill="#b08850"/>
  <rect x="22" y="32" width="4" height="2" fill="#b08850"/>
  <rect x="30" y="32" width="2" height="4" fill="#7a4234"/>
  <rect x="26" y="34" width="4" height="2" fill="#b08850"/>
  <rect x="34" y="34" width="4" height="4" fill="#7a4234"/>
  <rect x="16" y="36" width="2" height="2" fill="#b08850"/>
  <rect x="22" y="36" width="4" height="2" fill="#7a4234"/>
  <rect x="26" y="36" width="4" height="2" fill="#5a2e26"/>
  <rect x="30" y="36" width="2" height="2" fill="#b08850"/>
  <rect x="38" y="36" width="2" height="2" fill="#9a5c48"/>
  <rect x="40" y="36" width="2" height="2" fill="#7a4234"/>
  <rect x="18" y="38" width="4" height="2" fill="#b08850"/>
  <rect x="22" y="38" width="8" height="2" fill="#7a4234"/>
  <rect x="30" y="38" width="2" height="2" fill="#5a2e26"/>
  <rect x="34" y="38" width="8" height="2" fill="#7a4234"/>
  <rect x="42" y="38" width="2" height="2" fill="#9a5c48"/>
  <rect x="44" y="38" width="2" height="2" fill="#7a4234"/>
  <rect x="16" y="40" width="2" height="2" fill="#7a4234"/>
  <rect x="18" y="40" width="4" height="2" fill="#5a2e26"/>
  <rect x="22" y="40" width="4" height="2" fill="#b08850"/>
  <rect x="26" y="40" width="6" height="2" fill="#7a4234"/>
  <rect x="34" y="40" width="4" height="2" fill="#5a2e26"/>
  <rect x="38" y="40" width="12" height="2" fill="#7a4234"/>
  <rect x="10" y="42" width="4" height="2" fill="#7a4234"/>
  <rect x="16" y="42" width="6" height="2" fill="#7a4234"/>
  <rect x="22" y="42" width="4" height="2" fill="#5a2e26"/>
  <rect x="26" y="42" width="4" height="2" fill="#b08850"/>
  <rect x="30" y="42" width="2" height="2" fill="#7a4234"/>
  <rect x="34" y="42" width="4" height="2" fill="#7a4234"/>
  <rect x="38" y="42" width="4" height="2" fill="#5a2e26"/>
  <rect x="42" y="42" width="12" height="2" fill="#7a4234"/>
  <rect x="6" y="44" width="4" height="2" fill="#7a4234"/>
  <rect x="10" y="44" width="4" height="2" fill="#5a2e26"/>
  <rect x="16" y="44" width="2" height="2" fill="#b08850"/>
  <rect x="18" y="44" width="8" height="2" fill="#7a4234"/>
  <rect x="26" y="44" width="4" height="2" fill="#5a2e26"/>
  <rect x="30" y="44" width="2" height="2" fill="#b08850"/>
  <rect x="34" y="44" width="8" height="2" fill="#7a4234"/>
  <rect x="42" y="44" width="4" height="2" fill="#5a2e26"/>
  <rect x="46" y="44" width="12" height="2" fill="#7a4234"/>
  <rect x="2" y="46" width="6" height="2" fill="#7a4234"/>
  <rect x="8" y="46" width="2" height="2" fill="#9a5c48"/>
  <rect x="10" y="46" width="4" height="2" fill="#7a4234"/>
  <rect x="16" y="46" width="2" height="2" fill="#5a2e26"/>
  <rect x="18" y="46" width="4" height="2" fill="#b08850"/>
  <rect x="22" y="46" width="8" height="2" fill="#7a4234"/>
  <rect x="30" y="46" width="2" height="2" fill="#5a2e26"/>
  <rect x="34" y="46" width="12" height="2" fill="#7a4234"/>
  <rect x="46" y="46" width="4" height="2" fill="#5a2e26"/>
  <rect x="50" y="46" width="2" height="2" fill="#7a4234"/>
  <rect x="52" y="46" width="2" height="2" fill="#9a5c48"/>
  <rect x="54" y="46" width="8" height="2" fill="#7a4234"/>
  <rect x="2" y="48" width="4" height="2" fill="#5a2e26"/>
  <rect x="6" y="48" width="12" height="2" fill="#7a4234"/>
  <rect x="18" y="48" width="4" height="2" fill="#5a2e26"/>
  <rect x="22" y="48" width="4" height="2" fill="#b08850"/>
  <rect x="26" y="48" width="6" height="2" fill="#7a4234"/>
  <rect x="34" y="48" width="4" height="2" fill="#5a2e26"/>
  <rect x="38" y="48" width="12" height="2" fill="#7a4234"/>
  <rect x="50" y="48" width="4" height="2" fill="#5a2e26"/>
  <rect x="54" y="48" width="2" height="2" fill="#7a4234"/>
  <rect x="56" y="48" width="2" height="2" fill="#9a5c48"/>
  <rect x="58" y="48" width="4" height="2" fill="#7a4234"/>
  <rect x="6" y="50" width="4" height="2" fill="#5a2e26"/>
  <rect x="10" y="50" width="12" height="2" fill="#7a4234"/>
  <rect x="22" y="50" width="4" height="2" fill="#5a2e26"/>
  <rect x="26" y="50" width="4" height="2" fill="#b08850"/>
  <rect x="30" y="50" width="2" height="2" fill="#7a4234"/>
  <rect x="34" y="50" width="4" height="2" fill="#7a4234"/>
  <rect x="38" y="50" width="4" height="2" fill="#5a2e26"/>
  <rect x="42" y="50" width="4" height="2" fill="#7a4234"/>
  <rect x="46" y="50" width="2" height="2" fill="#9a5c48"/>
  <rect x="48" y="50" width="6" height="2" fill="#7a4234"/>
  <rect x="54" y="50" width="4" height="2" fill="#5a2e26"/>
  <rect x="10" y="52" width="4" height="2" fill="#5a2e26"/>
  <rect x="14" y="52" width="12" height="2" fill="#7a4234"/>
  <rect x="26" y="52" width="4" height="2" fill="#5a2e26"/>
  <rect x="30" y="52" width="2" height="2" fill="#b08850"/>
  <rect x="34" y="52" width="8" height="2" fill="#7a4234"/>
  <rect x="42" y="52" width="4" height="2" fill="#5a2e26"/>
  <rect x="46" y="52" width="4" height="2" fill="#7a4234"/>
  <rect x="50" y="52" width="2" height="2" fill="#9a5c48"/>
  <rect x="52" y="52" width="2" height="2" fill="#7a4234"/>
  <rect x="14" y="54" width="4" height="2" fill="#5a2e26"/>
  <rect x="18" y="54" width="12" height="2" fill="#7a4234"/>
  <rect x="30" y="54" width="2" height="2" fill="#5a2e26"/>
  <rect x="34" y="54" width="12" height="2" fill="#7a4234"/>
  <rect x="46" y="54" width="4" height="2" fill="#5a2e26"/>
  <rect x="18" y="56" width="4" height="2" fill="#5a2e26"/>
  <rect x="22" y="56" width="12" height="2" fill="#7a4234"/>
  <rect x="34" y="56" width="4" height="2" fill="#5a2e26"/>
  <rect x="38" y="56" width="8" height="2" fill="#7a4234"/>
  <rect x="22" y="58" width="4" height="2" fill="#5a2e26"/>
  <rect x="26" y="58" width="2" height="2" fill="#7a4234"/>
  <rect x="28" y="58" width="2" height="2" fill="#9a5c48"/>
  <rect x="30" y="58" width="8" height="4" fill="#7a4234"/>
  <rect x="38" y="58" width="4" height="2" fill="#5a2e26"/>
  <rect x="26" y="60" width="4" height="2" fill="#5a2e26"/>
  <rect x="30" y="62" width="4" height="2" fill="#5a2e26"/>
</svg>
