<svg xmlns="http://www.w3.org/2000/svg" width="32" height="48" viewBox="0 0 32 48" shape-rendering="crispEdges">
  <!-- generated by scripts/pixel-art.mjs from art/vampire.mjs; facing w -->
  <rect x="10" y="8" width="8" height="2" fill="#16121a"/>
  <rect x="8" y="10" width="2" height="2" fill="#16121a"/>
  <rect x="10" y="10" width="8" height="2" fill="#2a2836"/>
  <rect x="18" y="10" width="2" height="2" fill="#16121a"/>
  <rect x="6" y="12" width="2" height="2" fill="#16121a"/>
  <rect x="8" y="12" width="12" height="4" fill="#2a2836"/>
  <rect x="20" y="12" width="2" height="2" fill="#16121a"/>
  <rect x="4" y="14" width="2" height="6" fill="#16121a"/>
  <rect x="6" y="14" width="2" height="2" fill="#661622"/>
  <rect x="20" y="14" width="2" height="2" fill="#661622"/>
  <rect x="22" y="14" width="2" height="6" fill="#16121a"/>
  <rect x="6" y="16" width="4" height="2" fill="#661622"/>
  <rect x="10" y="16" width="8" height="2" fill="#2a2836"/>
  <rect x="18" y="16" width="4" height="2" fill="#661622"/>
  <rect x="6" y="18" width="4" height="2" fill="#4e4860"/>
  <rect x="10" y="18" width="6" height="2" fill="#2a2836"/>
  <rect x="16" y="18" width="2" height="2" fill="#16121a"/>
  <rect x="18" y="18" width="4" height="2" fill="#4e4860"/>
  <rect x="6" y="20" width="2" height="2" fill="#16121a"/>
  <rect x="8" y="20" width="2" height="2" fill="#4e4860"/>
  <rect x="10" y="20" width="6" height="2" fill="#b0aec8"/>
  <rect x="16" y="20" width="4" height="2" fill="#4e4860"/>
  <rect x="20" y="20" width="4" height="2" fill="#16121a"/>
  <rect x="4" y="22" width="2" height="22" fill="#16121a"/>
  <rect x="6" y="22" width="4" height="22" fill="#4e4860"/>
  <rect x="10" y="22" width="2" height="22" fill="#2a2836"/>
  <rect x="12" y="22" width="4" height="22" fill="#4e4860"/>
  <rect x="16" y="22" width="2" height="22" fill="#2a2836"/>
  <rect x="18" y="22" width="6" height="22" fill="#4e4860"/>
  <rect x="24" y="22" width="2" height="22" fill="#16121a"/>
  <rect x="6" y="44" width="18" height="2" fill="#16121a"/>
  <rect x="24" y="44" width="2" height="2" fill="#000000" fill-opacity="0.3"/>
  <rect x="10" y="46" width="12" height="2" fill="#000000" fill-opacity="0.3"/>
</svg>
