<svg xmlns="http://www.w3.org/2000/svg" width="64" height="64" viewBox="0 0 64 64" shape-rendering="crispEdges">
  <!-- generated by scripts/pixel-art.mjs from art/vampire.mjs; block, facing s -->
  <rect x="30" y="0" width="4" height="2" fill="#4a3426"/>
  <rect x="26" y="2" width="8" height="2" fill="#6a4a38"/>
  <rect x="34" y="2" width="4" height="2" fill="#4a3426"/>
  <rect x="22" y="4" width="4" height="2" fill="#4a3426"/>
  <rect x="26" y="4" width="12" height="2" fill="#6a4a38"/>
  <rect x="38" y="4" width="4" height="2" fill="#4a3426"/>
  <rect x="18" y="6" width="8" height="2" fill="#6a4a38"/>
  <rect x="26" y="6" width="4" height="2" fill="#4a3426"/>
  <rect x="30" y="6" width="12" height="2" fill="#6a4a38"/>
  <rect x="42" y="6" width="4" height="2" fill="#4a3426"/>
  <rect x="14" y="8" width="4" height="2" fill="#4a3426"/>
  <rect x="18" y="8" width="12" height="2" fill="#6a4a38"/>
  <rect x="30" y="8" width="4" height="2" fill="#4a3426"/>
  <rect x="34" y="8" width="12" height="2" fill="#6a4a38"/>
  <rect x="46" y="8" width="4" height="2" fill="#4a3426"/>
  <rect x="10" y="10" width="8" height="2" fill="#6a4a38"/>
  <rect x="18" y="10" width="4" height="2" fill="#4a3426"/>
  <rect x="22" y="10" width="12" height="2" fill="#6a4a38"/>
  <rect x="34" y="10" width="4" height="2" fill="#4a3426"/>
  <rect x="38" y="10" width="12" height="2" fill="#6a4a38"/>
  <rect x="50" y="10" width="4" height="2" fill="#4a3426"/>
  <rect x="6" y="12" width="4" height="2" fill="#4a3426"/>
  <rect x="10" y="12" width="12" height="2" fill="#6a4a38"/>
  <rect x="22" y="12" width="4" height="2" fill="#4a3426"/>
  <rect x="26" y="12" width="12" height="2" fill="#6a4a38"/>
  <rect x="38" y="12" width="4" height="2" fill="#4a3426"/>
  <rect x="42" y="12" width="12" height="2" fill="#6a4a38"/>
  <rect x="54" y="12" width="4" height="2" fill="#4a3426"/>
  <rect x="2" y="14" width="8" height="2" fill="#6a4a38"/>
  <rect x="10" y="14" width="4" height="2" fill="#4a3426"/>
  <rect x="14" y="14" width="12" height="2" fill="#6a4a38"/>
  <rect x="26" y="14" width="4" height="2" fill="#4a3426"/>
  <rect x="30" y="14" width="12" height="2" fill="#6a4a38"/>
  <rect x="42" y="14" width="4" height="2" fill="#4a3426"/>
  <rect x="46" y="14" width="12" height="2" fill="#6a4a38"/>
  <rect x="58" y="14" width="4" height="2" fill="#4a3426"/>
  <rect x="0" y="16" width="2" height="2" fill="#33231a"/>
  <rect x="2" y="16" width="12" height="2" fill="#6a4a38"/>
  <rect x="14" y="16" width="4" height="2" fill="#4a3426"/>
  <rect x="18" y="16" width="12" height="2" fill="#6a4a38"/>
  <rect x="30" y="16" width="4" height="2" fill="#4a3426"/>
  <rect x="34" y="16" width="12" height="2" fill="#6a4a38"/>
  <rect x="46" y="16" width="4" height="2" fill="#4a3426"/>
  <rect x="50" y="16" width="12" height="2" fill="#6a4a38"/>
  <rect x="62" y="16" width="2" height="2" fill="#33231a"/>
  <rect x="0" y="18" width="6" height="2" fill="#33231a"/>
  <rect x="6" y="18" width="12" height="2" fill="#6a4a38"/>
  <rect x="18" y="18" width="4" height="2" fill="#4a3426"/>
  <rect x="22" y="18" width="12" height="2" fill="#6a4a38"/>
  <rect x="34" y="18" width="4" height="2" fill="#4a3426"/>
  <rect x="38" y="18" width="12" height="2" fill="#6a4a38"/>
  <rect x="50" y="18" width="4" height="2" fill="#4a3426"/>
  <rect x="54" y="18" width="4" height="2" fill="#6a4a38"/>
  <rect x="58" y="18" width="6" height="2" fill="#33231a"/>
  <rect x="0" y="20" width="2" height="28" fill="#33231a"/>
  <rect x="2" y="20" width="2" height="2" fill="#2e5a3a"/>
  <rect x="4" y="20" width="2" height="2" fill="#80101e"/>
  <rect x="6" y="20" width="4" height="2" fill="#33231a"/>
  <rect x="10" y="20" width="12" height="2" fill="#6a4a38"/>
  <rect x="22" y="20" width="4" height="2" fill="#4a3426"/>
  <rect x="26" y="20" width="12" height="2" fill="#6a4a38"/>
  <rect x="38" y="20" width="4" height="2" fill="#4a3426"/>
  <rect x="42" y="20" width="12" height="2" fill="#6a4a38"/>
  <rect x="54" y="20" width="10" height="2" fill="#33231a"/>
  <rect x="2" y="22" width="6" height="2" fill="#2e5a3a"/>
  <rect x="8" y="22" width="2" height="4" fill="#4a3426"/>
  <rect x="10" y="22" width="4" height="2" fill="#33231a"/>
  <rect x="14" y="22" width="12" height="2" fill="#6a4a38"/>
  <rect x="26" y="22" width="4" height="2" fill="#4a3426"/>
  <rect x="30" y="22" width="12" height="2" fill="#6a4a38"/>
  <rect x="42" y="22" width="4" height="2" fill="#4a3426"/>
  <rect x="46" y="22" width="4" height="2" fill="#6a4a38"/>
  <rect x="50" y="22" width="14" height="2" fill="#33231a"/>
  <rect x="2" y="24" width="4" height="2" fill="#4a3426"/>
  <rect x="6" y="24" width="2" height="2" fill="#2e5a3a"/>
  <rect x="10" y="24" width="2" height="2" fill="#2e5a3a"/>
  <rect x="12" y="24" width="2" height="2" fill="#80101e"/>
  <rect x="14" y="24" width="4" height="2" fill="#33231a"/>
  <rect x="18" y="24" width="12" height="2" fill="#6a4a38"/>
  <rect x="30" y="24" width="4" height="2" fill="#4a3426"/>
  <rect x="34" y="24" width="12" height="2" fill="#6a4a38"/>
  <rect x="46" y="24" width="18" height="2" fill="#33231a"/>
  <rect x="2" y="26" width="4" height="2" fill="#2e5a3a"/>
  <rect x="6" y="26" width="4" height="2" fill="#4a3426"/>
  <rect x="10" y="26" width="6" height="2" fill="#2e5a3a"/>
  <rect x="16" y="26" width="2" height="4" fill="#4a3426"/>
  <rect x="18" y="26" width="4" height="2" fill="#33231a"/>
  <rect x="22" y="26" width="12" height="2" fill="#6a4a38"/>
  <rect x="34" y="26" width="4" height="2" fill="#4a3426"/>
  <rect x="38" y="26" width="4" height="2" fill="#6a4a38"/>
  <rect x="42" y="26" width="22" height="2" fill="#33231a"/>
  <rect x="2" y="28" width="2" height="2" fill="#2e5a3a"/>
  <rect x="4" y="28" width="2" height="2" fill="#80101e"/>
  <rect x="6" y="28" width="2" height="2" fill="#2e5a3a"/>
  <rect x="8" y="28" width="6" height="2" fill="#4a3426"/>
  <rect x="14" y="28" width="2" height="2" fill="#2e5a3a"/>
  <rect x="18" y="28" width="2" height="2" fill="#2e5a3a"/>
  <rect x="20" y="28" width="2" height="2" fill="#80101e"/>
  <rect x="22" y="28" width="4" height="2" fill="#33231a"/>
  <rect x="26" y="28" width="12" height="2" fill="#6a4a38"/>
  <rect x="38" y="28" width="26" height="2" fill="#33231a"/>
  <rect x="2" y="30" width="6" height="2" fill="#2e5a3a"/>
  <rect x="8" y="30" width="2" height="4" fill="#4a3426"/>
  <rect x="10" y="30" width="4" height="2" fill="#2e5a3a"/>
  <rect x="14" y="30" width="4" height="2" fill="#4a3426"/>
  <rect x="18" y="30" width="6" height="2" fill="#2e5a3a"/>
  <rect x="24" y="30" width="2" height="4" fill="#4a3426"/>
  <rect x="26" y="30" width="4" height="2" fill="#33231a"/>
  <rect x="30" y="30" width="4" height="2" fill="#6a4a38"/>
  <rect x="34" y="30" width="30" height="2" fill="#33231a"/>
  <rect x="2" y="32" width="4" height="2" fill="#4a3426"/>
  <rect x="6" y="32" width="2" height="2" fill="#2e5a3a"/>
  <rect x="10" y="32" width="2" height="2" fill="#2e5a3a"/>
  <rect x="12" y="32" width="2" height="2" fill="#80101e"/>
  <rect x="14" y="32" width="2" height="2" fill="#2e5a3a"/>
  <rect x="16" y="32" width="6" height="2" fill="#4a3426"/>
  <rect x="22" y="32" width="2" height="2" fill="#2e5a3a"/>
  <rect x="26" y="32" width="2" height="2" fill="#2e5a3a"/>
  <rect x="28" y="32" width="2" height="2" fill="#80101e"/>
  <rect x="30" y="32" width="34" height="16" fill="#33231a"/>
  <rect x="2" y="34" width="4" height="2" fill="#2e5a3a"/>
  <rect x="6" y="34" width="4" height="2" fill="#4a3426"/>
  <rect x="10" y="34" width="6" height="2" fill="#2e5a3a"/>
  <rect x="16" y="34" width="2" height="4" fill="#4a3426"/>
  <rect x="18" y="34" width="4" height="2" fill="#2e5a3a"/>
  <rect x="22" y="34" width="4" height="2" fill="#4a3426"/>
  <rect x="26" y="34" width="4" height="2" fill="#2e5a3a"/>
  <rect x="2" y="36" width="2" height="2" fill="#2e5a3a"/>
  <rect x="4" y="36" width="2" height="2" fill="#80101e"/>
  <rect x="6" y="36" width="2" height="2" fill="#2e5a3a"/>
  <rect x="8" y="36" width="6" height="2" fill="#4a3426"/>
  <rect x="14" y="36" width="2" height="2" fill="#2e5a3a"/>
  <rect x="18" y="36" width="2" height="2" fill="#2e5a3a"/>
  <rect x="20" y="36" width="2" height="2" fill="#80101e"/>
  <rect x="22" y="36" width="2" height="2" fill="#2e5a3a"/>
  <rect x="24" y="36" width="6" height="2" fill="#4a3426"/>
  <rect x="2" y="38" width="6" height="2" fill="#2e5a3a"/>
  <rect x="8" y="38" width="2" height="4" fill="#4a3426"/>
  <rect x="10" y="38" width="4" height="2" fill="#2e5a3a"/>
  <rect x="14" y="38" width="4" height="2" fill="#4a3426"/>
  <rect x="18" y="38" width="6" height="2" fill="#2e5a3a"/>
  <rect x="24" y="38" width="2" height="4" fill="#4a3426"/>
  <rect x="26" y="38" width="4" height="2" fill="#2e5a3a"/>
  <rect x="2" y="40" width="4" height="2" fill="#4a3426"/>
  <rect x="6" y="40" width="2" height="2" fill="#2e5a3a"/>
  <rect x="10" y="40" width="2" height="2" fill="#2e5a3a"/>
  <rect x="12" y="40" width="2" height="2" fill="#80101e"/>
  <rect x="14" y="40" width="2" height="2" fill="#2e5a3a"/>
  <rect x="16" y="40" width="6" height="2" fill="#4a3426"/>
  <rect x="22" y="40" width="2" height="2" fill="#2e5a3a"/>
  <rect x="26" y="40" width="2" height="2" fill="#2e5a3a"/>
  <rect x="28" y="40" width="2" height="2" fill="#80101e"/>
  <rect x="2" y="42" width="4" height="2" fill="#2e5a3a"/>
  <rect x="6" y="42" width="4" height="2" fill="#4a3426"/>
  <rect x="10" y="42" width="6" height="2" fill="#2e5a3a"/>
  <rect x="16" y="42" width="2" height="4" fill="#4a3426"/>
  <rect x="18" y="42" width="4" height="2" fill="#2e5a3a"/>
  <rect x="22" y="42" width="4" height="2" fill="#4a3426"/>
  <rect x="26" y="42" width="4" height="2" fill="#2e5a3a"/>
  <rect x="2" y="44" width="2" height="2" fill="#2e5a3a"/>
  <rect x="4" y="44" width="2" height="2" fill="#80101e"/>
  <rect x="6" y="44" width="2" height="2" fill="#2e5a3a"/>
  <rect x="8" y="44" width="6" height="2" fill="#4a3426"/>
  <rect x="14" y="44" width="2" height="2" fill="#2e5a3a"/>
  <rect x="18" y="44" width="2" height="2" fill="#2e5a3a"/>
  <rect x="20" y="44" width="2" height="2" fill="#80101e"/>
  <rect x="22" y="44" width="2" height="2" fill="#2e5a3a"/>
  <rect x="24" y="44" width="6" height="2" fill="#4a3426"/>
  <rect x="2" y="46" width="6" height="2" fill="#2e5a3a"/>
  <rect x="8" y="46" width="2" height="4" fill="#4a3426"/>
  <rect x="10" y="46" width="4" height="2" fill="#2e5a3a"/>
  <rect x="14" y="46" width="4" height="2" fill="#4a3426"/>
  <rect x="18" y="46" width="6" height="2" fill="#2e5a3a"/>
  <rect x="24" y="46" width="2" height="4" fill="#4a3426"/>
  <rect x="26" y="46" width="4" height="2" fill="#2e5a3a"/>
  <rect x="2" y="48" width="4" height="2" fill="#33231a"/>
  <rect x="6" y="48" width="2" height="2" fill="#2e5a3a"/>
  <rect x="10" y="48" width="2" height="2" fill="#2e5a3a"/>
  <rect x="12" y="48" width="2" height="2" fill="#80101e"/>
  <rect x="14" y="48" width="2" height="2" fill="#2e5a3a"/>
  <rect x="16" y="48" width="6" height="2" fill="#4a3426"/>
  <rect x="22" y="48" width="2" height="2" fill="#2e5a3a"/>
  <rect x="26" y="48" width="2" height="2" fill="#2e5a3a"/>
  <rect x="28" y="48" width="2" height="2" fill="#80101e"/>
  <rect x="30" y="48" width="32" height="2" fill="#33231a"/>
  <rect x="6" y="50" width="4" height="2" fill="#33231a"/>
  <rect x="10" y="50" width="6" height="2" fill="#2e5a3a"/>
  <rect x="16" y="50" width="2" height="4" fill="#4a3426"/>
  <rect x="18" y="50" width="4" height="2" fill="#2e5a3a"/>
  <rect x="22" y="50" width="4" height="2" fill="#4a3426"/>
  <rect x="26" y="50" width="4" height="2" fill="#2e5a3a"/>
  <rect x="30" y="50" width="28" height="2" fill="#33231a"/>
  <rect x="10" y="52" width="4" height="2" fill="#33231a"/>
  <rect x="14" y="52" width="2" height="2" fill="#2e5a3a"/>
  <rect x="18" y="52" width="2" height="2" fill="#2e5a3a"/>
  <rect x="20" y="52" width="2" height="2" fill="#80101e"/>
  <rect x="22" y="52" width="2" height="2" fill="#2e5a3a"/>
  <rect x="24" y="52" width="6" height="2" fill="#4a3426"/>
  <rect x="30" y="52" width="24" height="2" fill="#33231a"/>
  <rect x="14" y="54" width="4" height="2" fill="#33231a"/>
  <rect x="18" y="54" width="6" height="2" fill="#2e5a3a"/>
  <rect x="24" y="54" width="2" height="4" fill="#4a3426"/>
  <rect x="26" y="54" width="4" height="2" fill="#2e5a3a"/>
  <rect x="30" y="54" width="20" height="2" fill="#33231a"/>
  <rect x="18" y="56" width="4" height="2" fill="#33231a"/>
  <rect x="22" y="56" width="2" height="2" fill="#2e5a3a"/>
  <rect x="26" y="56" width="2" height="2" fill="#2e5a3a"/>
  <rect x="28" y="56" width="2" height="2" fill="#80101e"/>
  <rect x="30" y="56" width="16" height="2" fill="#33231a"/>
  <rect x="22" y="58" width="4" height="2" fill="#33231a"/>
  <rect x="26" y="58" width="4" height="2" fill="#2e5a3a"/>
  <rect x="30" y="58" width="12" height="2" fill="#33231a"/>
  <rect x="26" y="60" width="12" height="2" fill="#33231a"/>
  <rect x="30" y="62" width="4" height="2" fill="#33231a"/>
</svg>
